<?xml version="1.0" encoding="UTF-8"?>
<svg width="22px" height="22px" viewBox="0 0 22 22" version="1.1" xmlns="http://www.w3.org/2000/svg" xmlns:xlink="http://www.w3.org/1999/xlink">
    <!-- Generator: Sketch 51 (57462) - http://www.bohemiancoding.com/sketch -->
    <title>客服</title>
    <desc>Created with Sketch.</desc>
    <defs></defs>
    <g id="Page-1" stroke="none" stroke-width="1" fill="none" fill-rule="evenodd">
        <g id="没开启定位" transform="translate(-161.000000, -621.000000)">
            <rect fill="#FFFFFF" x="0" y="0" width="375" height="667"></rect>
            <g id="客服" transform="translate(161.000000, 621.000000)">
                <rect id="Rectangle-2" fill="#D8D8D8" opacity="0" x="0" y="0" width="22" height="22"></rect>
                <path d="M11.0000188,4 C8.19819308,4 5.83699827,5.94393252 5.07692452,8.59928001 C4.39735482,9.00901592 4,9.79822959 4,10.722016 C4,12.0617065 4.8157654,13.1480106 6.15384905,13.1480106 C6.45161628,13.1480106 6.69230192,12.907036 6.69230192,12.6089112 L6.69230192,8.83513956 C6.69230192,8.58715041 6.51649284,8.39251269 6.28844817,8.32972087 C7.0746491,6.39759827 8.88952094,5.04451817 11,5.04451817 C13.110479,5.04451817 14.9253509,6.39759825 15.7115518,8.32972087 C15.4835259,8.39251269 15.3076981,8.58715042 15.3076981,8.83513956 L15.3076981,12.6089112 C15.3076981,12.907036 15.5483837,13.1480106 15.8461509,13.1480106 C15.9714337,13.1480106 16.0836247,13.1326841 16.1995159,13.114311 C16.0253598,14.1202778 15.6033992,14.8699245 15.1730802,15.3886763 C14.9046896,15.7122263 14.629462,15.9466942 14.4158614,16.096255 C14.3090612,16.1710448 14.2259839,16.2174945 14.1634552,16.2478844 C14.1321815,16.2630793 14.1066178,16.276939 14.0961556,16.281584 L13.0865495,16.281584 C12.8926336,15.7186578 12.2755174,15.3044462 11.5384716,15.3044462 C10.6463157,15.3044462 9.92307547,15.9078607 9.92307547,16.6522231 C9.92307547,17.3965854 10.6463157,18 11.5384716,18 C12.2755174,18 12.8926335,17.5857695 13.0865495,17.0228622 L14.1466444,17.0228622 C14.3286519,17.0228622 14.3749333,16.9743814 14.4831798,16.9217822 C14.5914264,16.869183 14.7186062,16.7971389 14.8533744,16.7027725 C15.1228919,16.5140397 15.4481387,16.2388013 15.7620218,15.8604143 C16.3297199,15.1760793 16.8583492,14.1593746 16.9903938,12.7942213 C17.6252975,12.3723182 18,11.6126857 18,10.7220348 C18,9.79822957 17.6026452,9.00901592 16.9230755,8.59929881 C16.1630581,5.9439325 13.8018445,4 11.0000188,4 Z" id="Shape" fill="#9B9B9B" fill-rule="nonzero"></path>
            </g>
        </g>
    </g>
</svg>